# xmcd
#
# Track frame offsets:
#	150
#	12543
#	24538
#	35803
#	48693
#	57568
#	69010
#	77640
#	91823
#
# Disc length: 1348 seconds
#
# Revision: 1
# Processed by: cddbd v1.5PL3 Copyright (c) Steve Scherf et al.
# Submitted via: EasyCDDAExtractor 7.0.3.1
#
DISCID=72054209
DTITLE=Jerry Lee Lewis - Jerry Lee Lewis Greatest Hits
DYEAR=1996
DGENRE=Country
TTITLE0=There Must Be More To Love Than This
TTITLE1=One Has My Name (The Other Has My Heart)
TTITLE2=She Still Comes Around (To Love What's Left of Me)
TTITLE3=Chantilly Lace
TTITLE4=Invitation To Your Party
TTITLE5=High School Confidential
TTITLE6=Waiting for a Train (All Around the Watertank)
TTITLE7=Cold Cold Heart
TTITLE8=How's My Ex Treating You
EXTD=
EXTT0=
EXTT1=
EXTT2=
EXTT3=
EXTT4=
EXTT5=
EXTT6=
EXTT7=
EXTT8=
PLAYORDER=
